<svg xmlns="http://www.w3.org/2000/svg" viewBox="0 0 459.73 176.51"><defs><style>.cls-1{fill:#b4b7c1;}.cls-2{fill:#542607;}.cls-3{fill:#b24914;}.cls-4{fill:#65c8d0;}.cls-5{font-size:12px;fill:#46474f;font-family:ArialMT, Arial;}.cls-6{letter-spacing:-0.02em;}.cls-7{letter-spacing:-0.06em;}.cls-8{font-size:30px;font-family:FranklinGothic-Heavy, Franklin Gothic Heavy;font-weight:800;}.cls-9{letter-spacing:-0.01em;}.cls-10{letter-spacing:0.01em;}</style></defs><title>FEATURED</title><g id="Layer_2" data-name="Layer 2"><g id="Layer_1-2" data-name="Layer 1"><path class="cls-1" d="M155.59,113.11V139H152.5V113A17.72,17.72,0,0,1,155.59,113.11Z"/><path class="cls-1" d="M159.94,114.87V139h-3.47V113.31a.81.81,0,0,1,.22,0A16.2,16.2,0,0,1,159.94,114.87Z"/><path class="cls-1" d="M164.37,117.24V139h-3.43V115.39c.24.15.48.3.73.44A28.67,28.67,0,0,0,164.37,117.24Z"/><path class="cls-1" d="M168.77,119v20h-3.48V117.65C166.43,118.15,167.59,118.59,168.77,119Z"/><path class="cls-1" d="M173.16,120.14V139h-3.47V119.26C170.84,119.61,172,119.89,173.16,120.14Z"/><path class="cls-1" d="M177.55,120.79V139h-3.47V120.31A34,34,0,0,0,177.55,120.79Z"/><path class="cls-1" d="M181.94,121v18h-3.47V120.88c1,.08,2,.12,3.06.12h.41Z"/><path class="cls-1" d="M186.34,120.71V139h-3.48V121C184,120.93,185.19,120.84,186.34,120.71Z"/><path class="cls-1" d="M190.73,119.94v19h-3.47v-18.4A33.53,33.53,0,0,0,190.73,119.94Z"/><path class="cls-1" d="M195.12,118.66V139h-3.47V119.72C192.83,119.39,193.94,119.07,195.12,118.66Z"/><path class="cls-1" d="M199.51,116.77V139H196V118.31q.92-.34,1.8-.75C198.4,117.32,198.94,117.06,199.51,116.77Z"/><path class="cls-1" d="M203.94,114.49V139h-3.48V116.32c.67-.35,1.34-.69,2-1Z"/><path class="cls-1" d="M208.3,112.46V139h-3.46V114C206,113.42,207.12,112.91,208.3,112.46Z"/><path class="cls-1" d="M212.69,111.24V139h-3.46V112.11l1-.32A23,23,0,0,1,212.69,111.24Z"/><path class="cls-1" d="M217.08,111v28h-3.46V111.13A21.08,21.08,0,0,1,217.08,111Z"/><path class="cls-1" d="M221.48,111.78V139H218V111.09a15.34,15.34,0,0,1,1.92.3Q220.69,111.56,221.48,111.78Z"/><path class="cls-1" d="M225.26,113.12V139h-2.85v-26.9C223.36,112.39,224.31,112.75,225.26,113.12Z"/><rect class="cls-2" x="152.61" y="89.8" width="72.76" height="5.55"/><path class="cls-3" d="M152.62,96.23v15.59a16.29,16.29,0,0,1,4.92.5,13.38,13.38,0,0,1,2.78,1.19l.7.38,1,.58,1,.55a17.76,17.76,0,0,0,2,1,.43.43,0,0,1,.35.17,35.81,35.81,0,0,0,3.58,1.46l.92.32c1.14.37,2.3.68,3.47.94l.92.18a31.58,31.58,0,0,0,3.47.52c.31,0,.61.06.92.08,1.16.09,2.31.13,3.47.13H183a29,29,0,0,0,3.48-.27l.92-.13c1.16-.18,2.32-.41,3.47-.69.31-.08.62-.15.92-.24a32,32,0,0,0,3.47-1.15c.31-.12.62-.23.92-.37l.81-.34c.88-.4,1.77-.84,2.66-1.3l.92-.48.83-.44c.88-.46,1.75-.92,2.65-1.37l.93-.46a36,36,0,0,1,3.46-1.44c.31-.11.62-.21.93-.29l.29-.1a22.28,22.28,0,0,1,10.91-.46,31.09,31.09,0,0,1,4.83,1.51V96.21H152.62Zm3.4,11.41a.47.47,0,0,1-.4-.53.41.41,0,1,1,.8.14A.47.47,0,0,1,156,107.64Zm0-7.56a.46.46,0,0,1-.46-.46.47.47,0,0,1,.46-.46.46.46,0,0,1,.46.46A.45.45,0,0,1,156,100.08Zm8.32.77a.47.47,0,0,1,.4.54.41.41,0,1,1-.8-.14A.48.48,0,0,1,164.34,100.85Zm-6,.16a.46.46,0,0,1,.46.46.46.46,0,0,1-.92,0,.46.46,0,0,1,.45-.47h0Zm.15,10.33a.47.47,0,0,1-.4-.53.48.48,0,0,1,.4-.4.47.47,0,0,1,.39.54.45.45,0,0,1-.4.39Zm0-12.18a.47.47,0,0,1-.4-.53.48.48,0,0,1,.4-.4.47.47,0,0,1,.39.54.45.45,0,0,1-.4.39Zm.93,5.86a.47.47,0,0,1-.4-.53.48.48,0,0,1,.4-.4.47.47,0,0,1,.39.54.45.45,0,0,1-.4.39Zm1.38,2.46a.46.46,0,0,1-.46-.46.46.46,0,1,1,.92,0,.46.46,0,0,1-.47.45Zm.67-5.39a1.39,1.39,0,1,1,0-2.78,1.4,1.4,0,0,1,1.39,1.4,1.39,1.39,0,0,1-1.4,1.38Zm1.65,1.38a.47.47,0,0,1,.4.54.47.47,0,0,1-.4.39.46.46,0,0,1-.4-.53.49.49,0,0,1,.39-.4Zm.46,8.79a.46.46,0,0,1-.46-.46.46.46,0,1,1,.92,0,.46.46,0,0,1-.47.45Zm.46-2.47a.46.46,0,0,1-.46-.46.46.46,0,1,1,.92,0,.46.46,0,0,1-.47.45Zm0-2.46a.93.93,0,1,1,.82-.82.91.91,0,0,1-.83.82Zm5.7-5.4a.94.94,0,0,1,.83,1,.84.84,0,1,1-.84-1Zm-2.92-.15a.46.46,0,0,1,.46.46.45.45,0,0,1-.46.46h0a.46.46,0,0,1,0-.92Zm.3,5.09a.47.47,0,0,1-.4-.53.48.48,0,0,1,.4-.4.47.47,0,0,1,.39.54.45.45,0,0,1-.4.39Zm.62-8a.46.46,0,0,1-.46-.46.47.47,0,0,1,.46-.46.46.46,0,0,1,.35.55.45.45,0,0,1-.36.35Zm1.08,16.8a.46.46,0,0,1-.46-.46.47.47,0,0,1,.46-.46.46.46,0,0,1,.35.55.45.45,0,0,1-.36.35Zm1.54-3.39a.94.94,0,1,1,.74-.76.91.91,0,0,1-.75.74Zm.46-4.47a.94.94,0,1,1,.74-.76.91.91,0,0,1-.75.74Zm1.24-7.86a.47.47,0,0,1-.4-.53.39.39,0,1,1,.73.18.46.46,0,0,1-.34.33Zm17.41,1.23a1.39,1.39,0,1,1-1.4,1.39,1.39,1.39,0,0,1,1.4-1.39Zm-2.16-3.08a.46.46,0,0,1,.46.46.47.47,0,0,1-.93,0,.47.47,0,0,1,.46-.48Zm-4.62,4.16a.46.46,0,0,1-.46-.46.47.47,0,0,1,.46-.46.46.46,0,0,1,.35.55.45.45,0,0,1-.36.35Zm-.77-4.47a.47.47,0,0,1,.4.54.43.43,0,1,1-.86-.09.48.48,0,0,1,.48-.47Zm-6,12.95a.47.47,0,0,1-.4-.53.4.4,0,1,1,.75.17.46.46,0,0,1-.33.34Zm-.77-5.24a.46.46,0,0,1,.46.46.45.45,0,0,1-.46.46.47.47,0,0,1-.48-.46.48.48,0,0,1,.46-.48Zm-1.08-1.7a.47.47,0,0,1,.4.54.44.44,0,0,1-.88-.07.48.48,0,0,1,.46-.49h0Zm-.13,4.59a.46.46,0,0,1,.46.46.45.45,0,0,1-.46.46h0a.46.46,0,0,1-.46-.46A.47.47,0,0,1,173.94,108.39Zm1.54,7.86a1.85,1.85,0,1,1,1.84-1.82,1.85,1.85,0,0,1-1.84,1.82ZM177.63,101a1.39,1.39,0,1,1,0-2.78,1.4,1.4,0,0,1,0,2.8h0Zm1.7,2.46a.47.47,0,0,1,.4.54.47.47,0,0,1-.4.39.46.46,0,0,1-.36-.55.47.47,0,0,1,.32-.36Zm.77,13.88a.47.47,0,0,1-.4-.53.48.48,0,0,1,.4-.4.5.5,0,1,1,0,1Zm2.16-4a.47.47,0,0,1-.4-.53.48.48,0,0,1,.4-.4.47.47,0,1,1,0,.94ZM182.1,109a1.39,1.39,0,0,1-1.27-1.5,1.41,1.41,0,0,1,1.27-1.27,1.39,1.39,0,0,1,0,2.78h0Zm2.93,7.25a1.59,1.59,0,1,0-.09,0Zm1.85-11.41a.47.47,0,0,1,.4.54.41.41,0,1,1-.79-.15.49.49,0,0,1,.35-.38Zm1.85,6.94a1.85,1.85,0,1,1,1.84-1.82,1.85,1.85,0,0,1-1.84,1.82Zm1.85,3.39a.47.47,0,0,1-.4-.53.48.48,0,0,1,.4-.4.47.47,0,1,1,0,.94h0ZM191,99a.46.46,0,0,1-.46-.46.46.46,0,1,1,.91,0A.47.47,0,0,1,191,99h0Zm2.32,7.87a.47.47,0,0,1-.4-.53.48.48,0,0,1,.4-.4.47.47,0,1,1,0,.94Zm.92,4.77a.46.46,0,0,1-.46-.46.46.46,0,1,1,.42.47Zm21.42-6.93a.46.46,0,0,1,.46.46.44.44,0,1,1-.87,0,.47.47,0,0,1,.37-.41Zm-14.79-2a.47.47,0,0,1,.4.54.47.47,0,0,1-.4.39.46.46,0,0,1-.42-.51.47.47,0,0,1,.38-.42Zm-4.16,11.41a.47.47,0,0,1-.4-.53.4.4,0,1,1,.78.15.47.47,0,0,1-.42.38Zm0-8.32a.47.47,0,0,1-.4-.53.4.4,0,1,1,.78.15.47.47,0,0,1-.42.38Zm.46-7.56a1.85,1.85,0,1,1-1.87,1.87,1.85,1.85,0,0,1,1.87-1.87h0Zm1.85,11.87a1.39,1.39,0,0,1-1.27-1.5,1.27,1.27,0,1,1,2.52.25A1.38,1.38,0,0,1,199,110.1Zm1.85,2.62a.93.93,0,1,1,.81-.81.92.92,0,0,1-.85.81Zm1.85-14.49a.47.47,0,0,1,.4.54.47.47,0,0,1-.4.39.46.46,0,0,1-.42-.51.47.47,0,0,1,.38-.42Zm.46,11a.47.47,0,0,1-.4-.53.37.37,0,1,1,.65.22.47.47,0,0,1-.29.26Zm.92-3.09a.46.46,0,0,1-.46-.46.39.39,0,1,1,.72.14.45.45,0,0,1-.3.27Zm.78-4.16a.46.46,0,0,1-.46-.46.39.39,0,1,1,.72.14.45.45,0,0,1-.3.27Zm2.15-2.31a.46.46,0,0,1-.46-.46.39.39,0,1,1,.72.14.45.45,0,0,1-.3.27Zm2.16,9.25a1.88,1.88,0,1,1,1.5-1.55,1.85,1.85,0,0,1-1.5,1.55Zm1.08-6.78a1.43,1.43,0,1,1,1.08-1.13,1.39,1.39,0,0,1-1.08,1.13Zm5.39,6.47a1,1,0,1,1,.64-.7.9.9,0,0,1-.68.65Zm.78-8.94h-.16a.46.46,0,0,1-.46-.46.47.47,0,0,1,.46-.46h.16a.46.46,0,0,1,.26.6.45.45,0,0,1-.3.27Zm2,3.39a.46.46,0,0,1-.46-.46.39.39,0,1,1,.72.14.45.45,0,0,1-.3.27ZM222,98.75a.46.46,0,0,1,.46.46.45.45,0,0,1-.46.46.47.47,0,0,1-.52-.44.48.48,0,0,1,.44-.53Zm-.3,10a.46.46,0,0,1-.46-.46.47.47,0,0,1,.46-.46.46.46,0,0,1,.28.59.45.45,0,0,1-.32.29Zm.46-3.08a1.39,1.39,0,0,1-1.27-1.5,1.41,1.41,0,0,1,1.27-1.27,1.39,1.39,0,0,1,0,2.73Z"/><path class="cls-4" d="M40.64,94.88a1.88,1.88,0,0,0,0,2.62l13.19,13.19a1.82,1.82,0,0,0,1.3.54,1.76,1.76,0,0,0,1.3-.54,1.88,1.88,0,0,0,0-2.62L43.24,94.88A1.85,1.85,0,0,0,40.64,94.88Z"/><path class="cls-4" d="M31.18,103.34A1.86,1.86,0,0,0,28.55,106l.12.12a1.82,1.82,0,0,0,1.3.54,1.76,1.76,0,0,0,1.3-.54,1.88,1.88,0,0,0,0-2.62Z"/><path class="cls-4" d="M35.25,107.41A1.86,1.86,0,0,0,32.62,110l.12.13a1.86,1.86,0,0,0,1.3.53,1.79,1.79,0,0,0,1.3-.53,1.87,1.87,0,0,0,0-2.63Z"/><path class="cls-4" d="M39.32,111.48a1.86,1.86,0,1,0-2.63,2.62l.13.13a1.83,1.83,0,0,0,1.3.54,1.79,1.79,0,0,0,1.29-.54,1.87,1.87,0,0,0,0-2.63Z"/><path class="cls-4" d="M133.16,119.77h0l-3.95-4h0l-1.15-1.15,4.14-4.15a3.6,3.6,0,0,0,0-5.1L112.71,85.93a3.6,3.6,0,0,0-5.1,0l-4.14,4.14L98.34,85a3.13,3.13,0,0,0-4.41,0l-2.41,2.4L88,83.82,90.81,81l7.65-7.65h0l1.5-1.5a4,4,0,0,0,0-5.71l-1.47-1.47L105.13,58a3.91,3.91,0,0,0,0-5.52l-6.27-6.27a3.91,3.91,0,0,0-5.52,0l-6.65,6.59-1.47-1.47a4,4,0,0,0-2.87-1.17h0a4,4,0,0,0-2.87,1.17l-12,12L64,59.81l2.4-2.4a3.13,3.13,0,0,0,0-4.41l-4-4h0l-1.15-1.15,4.14-4.14a3.6,3.6,0,0,0,0-5.1l-.22-.23-.49-.49,0,0-.44-.44-.81-.81-1.16-1.15-1.05-1.06-.12-.12-.54-.54-.08-.07-.63-.64L47.53,20.77h0l-2.84-2.84s0-.05,0-.07,0,0,0-.05l-.07-.08a1.89,1.89,0,0,0-2.63,0,1.76,1.76,0,0,0-.42.67l-4.83,4.83-5.07-5.06a3.16,3.16,0,0,0-4.42,0L15.43,29.92a3.15,3.15,0,0,0,0,4.41l4,4h0l1.15,1.15L16.41,43.6a3.62,3.62,0,0,0,0,5.1l19.5,19.5a3.62,3.62,0,0,0,5.1,0l4.14-4.15,5.13,5.13a3.09,3.09,0,0,0,2.2.91,3.13,3.13,0,0,0,2.21-.91l2.4-2.4,3.54,3.53L47.41,83.48,37.85,86a6,6,0,0,0-2.68,1.55l-6,6h0l-5.22,5.22L20.7,102a3.73,3.73,0,0,0,0,5.25l10.4,10.39-2,2a5.71,5.71,0,1,0,2.6,2.62l2-2,10.4,10.4a3.66,3.66,0,0,0,2.62,1.07,3.77,3.77,0,0,0,2.63-1.07l14.46-14.47a6,6,0,0,0,1.55-2.68L67.88,104l13.2-13.19,3.53,3.53-2.4,2.4a3.14,3.14,0,0,0,0,4.42l5.12,5.12-4.14,4.15a3.6,3.6,0,0,0,0,5.1L102.68,135a3.6,3.6,0,0,0,5.1,0l4.15-4.14,1.15,1.15h0l4,4a3.13,3.13,0,0,0,4.41,0l11.75-11.74a3.11,3.11,0,0,0,.91-2.21A3.33,3.33,0,0,0,133.16,119.77ZM28,126.12a2,2,0,0,1-2.85,0,2,2,0,1,1,2.85,0ZM129.48,108,125.41,112l-4.71-4.71,4.07-4.07ZM104,109.37l4.71,4.71-4.17,4.17-4.7-4.71Zm-6.76,1.55-4.71-4.71L96.7,102l4.71,4.71Zm9.39-4.17,4.17-4.17,4.71,4.71-4.17,4.16Zm11.47,3.18,4.71,4.71-4.17,4.17-4.7-4.71Zm4.08-9.29-4.08,4.07L113.4,100l4.07-4.07Zm-12-12,4.7,4.71-4.07,4.07-4.71-4.71Zm-2,11.38L104,104.15l-4.71-4.71,4.15-4.14Zm-12-12,3.56,3.56h0l1.15,1.15L96.7,96.82,92,92.11ZM96,48.8a.24.24,0,0,1,.3,0l6.27,6.28a.21.21,0,0,1,0,.29L95.89,62l-5-5-1.54-1.54ZM62.73,41.2l-4.07,4.07L54,40.56,58,36.49ZM37.26,42.62,42,47.33,37.8,51.5l-4.71-4.71Zm-6.77,1.55-4.71-4.71L30,35.29,34.66,40ZM39.86,40,44,35.83l4.71,4.73-4.17,4.17Zm11.5,3.16,4.7,4.71L51.9,52l-4.71-4.71Zm-.67-14,4.71,4.71-4.07,4.07-4.71-4.71Zm-7.3-7.31L45,23.45l3.12,3.11L44,30.63l-4.7-4.71Zm-6.7,6.67,4.71,4.71L37.23,37.4l-4.68-4.71Zm-7.3-7.33,3.55,3.56h0l1.15,1.15-4.17,4.17-4.7-4.71ZM18.45,32.13,22.62,28l4.71,4.71-4.17,4.17L23,36.66Zm.64,14,4.07-4.07,4.71,4.71-4.08,4.07Zm7.33,7.33,4.07-4.07L35.2,54.1l-4.07,4.07Zm12,12-4.71-4.71,4.07-4.07,4.71,4.71Zm2-11.38,4.17-4.17,4.71,4.71-4.17,4.17Zm12,12L48.9,62.58h0l-1.15-1.17,4.17-4.17L56.63,62Zm2.06-11.5,4.17-4.17,1.15,1.15h0l3.56,3.56-4.17,4.17Zm5.15,9.49s1.79-1.79,1.72-1.72l3.53,3.53L63.2,67.66Zm2.11,48.43a2,2,0,0,1-.59,1L46.72,128h0L23.3,104.64v0l3.24-3.23,6.7-6.7h0l4.53-4.53a2.35,2.35,0,0,1,1-.59l9-2.38,16.36,16.35Zm11.43-19.2-.13.12-.63.64-.76.76-2.75,2.74-.61.62-.74.73-.32.32-.56.57-.49.49L51,85.12,82.13,54a.32.32,0,0,1,.49,0L97.36,68.71a.32.32,0,0,1,0,.49l-4,4h0l-5.22,5.23h0Zm10.47-5.23,1.71-1.71L88.92,90s-1.81,1.81-1.71,1.72ZM85.2,98.88l4.17-4.17,4.7,4.7-4.17,4.17-1.15-1.15h0Zm.66,14,4.07-4.07,4.71,4.7-4.07,4.08Zm7.31,7.33,4.07-4.07,4.71,4.71-4.08,4.07Zm12,12-4.71-4.71,4.07-4.07,4.71,4.71Zm6.67-6.7-4.71-4.7,4.17-4.17,4.7,4.71Zm7.33,7.34-3.56-3.56h0l-1.15-1.15,4.17-4.17,4.71,4.71Zm6.77-6.77-4.71-4.71,4.17-4.17,1.15,1.15h0l3.55,3.56Z"/><path class="cls-4" d="M26.15,132.84h0a7.69,7.69,0,0,1-7.68-7.68,1.84,1.84,0,0,0-1.84-1.84,1.86,1.86,0,0,0-1.84,1.84,11.38,11.38,0,0,0,11.36,11.36A1.84,1.84,0,0,0,28,134.68,1.82,1.82,0,0,0,26.15,132.84Z"/><path class="cls-4" d="M26.15,139.12a14,14,0,0,1-13.95-14,1.84,1.84,0,0,0-3.68,0,17.67,17.67,0,0,0,17.63,17.66,1.85,1.85,0,0,0,0-3.7Z"/><path class="cls-4" d="M89.51,67.78a1.88,1.88,0,0,0-2.62,0L67.27,87.4a1.88,1.88,0,0,0,0,2.62,1.82,1.82,0,0,0,1.3.54,1.76,1.76,0,0,0,1.3-.54L89.49,70.41A1.87,1.87,0,0,0,89.51,67.78Z"/><path class="cls-4" d="M83.55,61.82a1.88,1.88,0,0,0-2.62,0L61.31,81.44a1.88,1.88,0,0,0,0,2.62,1.82,1.82,0,0,0,1.3.54,1.76,1.76,0,0,0,1.3-.54L83.53,64.45A1.87,1.87,0,0,0,83.55,61.82Z"/><text class="cls-5" transform="translate(0 171.02)">Data: SMA<tspan class="cls-6" x="58.02" y="0">P</tspan><tspan x="65.81" y="0" xml:space="preserve"> L3 Radiometer Global Daily 36 km EASE-Grid Soil Moisture, </tspan><tspan class="cls-7" x="393.26" y="0">V</tspan><tspan x="400.61" y="0">ersion 7</tspan></text><text class="cls-8" transform="translate(134.58 25)">P<tspan class="cls-9" x="19.29" y="0">L</tspan><tspan x="35.19" y="0">OT SOIL MOI</tspan><tspan class="cls-10" x="205.33" y="0">S</tspan><tspan x="223.78" y="0">TURE </tspan><tspan x="0" y="36">TIME SERIES</tspan></text></g></g></svg>